# xmcd
#
# Track frame offsets:
# 150
# 22858
# 38934
# 57412
# 74811
# 99759
# 128725
# 155124
# 182241
# 205759
# 227062
# 246305
#
# Disc length: 3484 seconds
#
#
# Revision: 0
# Processed by: cddbd v1.5.1PL2 Copyright (c) Steve Scherf et al.
# Submitted via: FreeRIP 2.942 
#
DISCID=a70d9a0c
DTITLE=Various Artist - Dero South American Techno [CD 1)
DYEAR=2005
DGENRE=Electronic
TTITLE0=Deró feat. Leee John - Dero's Ilussions
TTITLE1=Thomas Anderson - Washing up
TTITLE2=Tiga - Louder that a bomb
TTITLE3=Who's Who - Not so dirty
TTITLE4=Dero - 1989
TTITLE5=Mauro Picotto and Fergie - Funkytime
TTITLE6=Guy Gerber - Stoppage time
TTITLE7=Anthony Rother - Father
TTITLE8=John Starlight - John's Addiction
TTITLE9=Adam Beyer - Amanda
TTITLE10=Christian Smith and John Selway - Let your body rock
TTITLE11=Da Fresh - The dirty dozen
EXTD=
EXTT0=
EXTT1=
EXTT2=
EXTT3=
EXTT4=
EXTT5=
EXTT6=
EXTT7=
EXTT8=
EXTT9=
EXTT10=
EXTT11=
PLAYORDER=
